<svg width="36" height="33" viewBox="0 0 36 33" fill="none" xmlns="http://www.w3.org/2000/svg">
<path d="M31.389 28.9214L31.8818 28.8372L31.389 28.9214ZM31.711 32.908C31.9363 33.0676 32.2484 33.0143 32.408 32.789L35.009 29.1169C35.1687 28.8915 35.1154 28.5795 34.89 28.4198C34.6647 28.2602 34.3526 28.3135 34.193 28.5389L31.881 31.803L28.6169 29.491C28.3915 29.3313 28.0795 29.3846 27.9198 29.61C27.7602 29.8353 27.8135 30.1474 28.0389 30.307L31.711 32.908ZM30.8961 29.0055L31.5071 32.5842L32.4929 32.4158L31.8818 28.8372L30.8961 29.0055ZM0.96166 1.71514C16.0165 2.8732 28.3547 14.1217 30.8961 29.0055L31.8818 28.8372C29.2633 13.5014 16.5503 1.91132 1.03836 0.718084L0.96166 1.71514Z" fill="white"/>
</svg>
